<svg width="162" height="67" viewBox="0 0 162 67" fill="none" xmlns="http://www.w3.org/2000/svg">
<path fill-rule="evenodd" clip-rule="evenodd" d="M65.3755 5.81365C66.7052 4.48418 66.7052 2.32974 65.3755 0.997102C64.0457 -0.332367 61.8889 -0.332367 60.5592 0.997102C59.2295 2.32657 59.2295 4.48418 60.5592 5.81365C61.8889 7.14312 64.0426 7.14312 65.3755 5.81365Z" fill="#43B806"/>
<path fill-rule="evenodd" clip-rule="evenodd" d="M40.7882 24.083C40.3906 24.4828 40.3906 25.1301 40.7882 25.5267C41.1859 25.9265 41.8348 25.9265 42.2325 25.5267C42.6301 25.1269 42.6301 24.4797 42.2325 24.083C41.8348 23.6833 41.1859 23.6833 40.7882 24.083Z" fill="#43B806"/>
<path fill-rule="evenodd" clip-rule="evenodd" d="M54.7727 7.73373C53.7102 8.79667 53.7102 10.5228 54.7727 11.5857C55.8352 12.6486 57.5594 12.6486 58.6251 11.5857C59.6876 10.5228 59.6876 8.79667 58.6251 7.73373C57.5626 6.67079 55.8384 6.67079 54.7727 7.73373Z" fill="#43B806"/>
<path fill-rule="evenodd" clip-rule="evenodd" d="M49.9501 13.505C49.1516 14.3014 49.1516 15.5959 49.9501 16.3955C50.7485 17.1919 52.0401 17.1919 52.8386 16.3955C53.637 15.5959 53.637 14.3045 52.8386 13.505C52.0401 12.7054 50.7485 12.7054 49.9501 13.505Z" fill="#43B806"/>
<path fill-rule="evenodd" clip-rule="evenodd" d="M45.1622 19.3119C44.631 19.845 44.631 20.708 45.1622 21.2379C45.6935 21.7709 46.5556 21.7709 47.0868 21.2379C47.6181 20.7048 47.6181 19.845 47.0868 19.3119C46.5556 18.7788 45.6935 18.7788 45.1622 19.3119Z" fill="#43B806"/>
<path fill-rule="evenodd" clip-rule="evenodd" d="M60.5592 14.6221C59.2295 15.9516 59.2295 18.1092 60.5592 19.4387C61.8889 20.7681 64.0426 20.7681 65.3755 19.4387C66.7052 18.1092 66.7052 15.9547 65.3755 14.6221C64.0457 13.2926 61.8889 13.2926 60.5592 14.6221Z" fill="#43B806"/>
<path fill-rule="evenodd" clip-rule="evenodd" d="M40.7882 37.708C40.3906 38.1078 40.3906 38.7551 40.7882 39.1517C41.1859 39.5515 41.8348 39.5515 42.2325 39.1517C42.6301 38.752 42.6301 38.1047 42.2325 37.708C41.8348 37.3083 41.1859 37.3083 40.7882 37.708Z" fill="#43B806"/>
<path fill-rule="evenodd" clip-rule="evenodd" d="M54.7727 21.3548C53.7102 22.4178 53.7102 24.1439 54.7727 25.2068C55.8352 26.2697 57.5594 26.2697 58.6251 25.2068C59.6876 24.1439 59.6876 22.4178 58.6251 21.3548C57.5626 20.2919 55.8384 20.2919 54.7727 21.3548Z" fill="#43B806"/>
<path fill-rule="evenodd" clip-rule="evenodd" d="M49.9501 27.127C49.1516 27.9234 49.1516 29.218 49.9501 30.0176C50.7485 30.814 52.0401 30.814 52.8386 30.0176C53.637 29.218 53.637 27.9266 52.8386 27.127C52.0401 26.3274 50.7485 26.3274 49.9501 27.127Z" fill="#43B806"/>
<path fill-rule="evenodd" clip-rule="evenodd" d="M45.1622 32.932C44.631 33.4651 44.631 34.3281 45.1622 34.858C45.6935 35.3911 46.5556 35.3911 47.0868 34.858C47.6181 34.3249 47.6181 33.4651 47.0868 32.932C46.5556 32.399 45.6935 32.399 45.1622 32.932Z" fill="#43B806"/>
<path fill-rule="evenodd" clip-rule="evenodd" d="M60.5592 27.919C59.2295 29.2484 59.2295 31.4061 60.5592 32.7355C61.8889 34.065 64.0426 34.065 65.3755 32.7355C66.7052 31.4061 66.7052 29.2516 65.3755 27.919C64.0457 26.5895 61.8889 26.5895 60.5592 27.919Z" fill="#43B806"/>
<path fill-rule="evenodd" clip-rule="evenodd" d="M40.7882 51.0059C40.3906 51.4057 40.3906 52.053 40.7882 52.4496C41.1859 52.8494 41.8348 52.8494 42.2325 52.4496C42.6301 52.0498 42.6301 51.4025 42.2325 51.0059C41.8348 50.6061 41.1859 50.6061 40.7882 51.0059Z" fill="#43B806"/>
<path fill-rule="evenodd" clip-rule="evenodd" d="M54.7727 34.6527C53.7102 35.7156 53.7102 37.4417 54.7727 38.5046C55.8352 39.5676 57.5594 39.5676 58.6251 38.5046C59.6876 37.4417 59.6876 35.7156 58.6251 34.6527C57.5626 33.5897 55.8384 33.5897 54.7727 34.6527Z" fill="#43B806"/>
<path fill-rule="evenodd" clip-rule="evenodd" d="M49.9501 40.4239C49.1516 41.2203 49.1516 42.5149 49.9501 43.3145C50.7485 44.1109 52.0401 44.1109 52.8386 43.3145C53.637 42.5149 53.637 41.2235 52.8386 40.4239C52.0401 39.6243 50.7485 39.6243 49.9501 40.4239Z" fill="#43B806"/>
<path fill-rule="evenodd" clip-rule="evenodd" d="M45.1622 46.2308C44.631 46.7639 44.631 47.627 45.1622 48.1568C45.6935 48.6899 46.5556 48.6899 47.0868 48.1568C47.6181 47.6238 47.6181 46.7639 47.0868 46.2308C46.5556 45.6978 45.6935 45.6978 45.1622 46.2308Z" fill="#43B806"/>
<path fill-rule="evenodd" clip-rule="evenodd" d="M60.5592 41.544C59.2295 42.8734 59.2295 45.0311 60.5592 46.3605C61.8889 47.69 64.0426 47.69 65.3755 46.3605C66.7052 45.0311 66.7052 42.8766 65.3755 41.544C64.0457 40.2145 61.8889 40.2145 60.5592 41.544Z" fill="#43B806"/>
<path fill-rule="evenodd" clip-rule="evenodd" d="M40.7882 64.6299C40.3906 65.0297 40.3906 65.677 40.7882 66.0736C41.1859 66.4734 41.8348 66.4734 42.2325 66.0736C42.6301 65.6738 42.6301 65.0265 42.2325 64.6299C41.8348 64.2301 41.1859 64.2301 40.7882 64.6299Z" fill="#43B806"/>
<path fill-rule="evenodd" clip-rule="evenodd" d="M54.7727 48.2777C53.7102 49.3406 53.7102 51.0667 54.7727 52.1296C55.8352 53.1926 57.5594 53.1926 58.6251 52.1296C59.6876 51.0667 59.6876 49.3406 58.6251 48.2777C57.5626 47.2147 55.8384 47.2147 54.7727 48.2777Z" fill="#43B806"/>
<path fill-rule="evenodd" clip-rule="evenodd" d="M49.9501 54.0489C49.1516 54.8453 49.1516 56.1399 49.9501 56.9395C50.7485 57.7359 52.0401 57.7359 52.8386 56.9395C53.637 56.1399 53.637 54.8485 52.8386 54.0489C52.0401 53.2493 50.7485 53.2493 49.9501 54.0489Z" fill="#43B806"/>
<path fill-rule="evenodd" clip-rule="evenodd" d="M45.1622 59.8558C44.631 60.3889 44.631 61.252 45.1622 61.7818C45.6935 62.3149 46.5556 62.3149 47.0868 61.7818C47.6181 61.2488 47.6181 60.3889 47.0868 59.8558C46.5556 59.3228 45.6935 59.3228 45.1622 59.8558Z" fill="#43B806"/>
<path fill-rule="evenodd" clip-rule="evenodd" d="M51.7571 0.997102C50.4273 -0.332367 48.2705 -0.332367 46.9408 0.997102C45.611 2.32657 45.611 4.48418 46.9408 5.81365C48.2705 7.14312 50.4242 7.14312 51.7571 5.81365C53.0868 4.48418 53.0868 2.32974 51.7571 0.997102Z" fill="#43B806"/>
<path fill-rule="evenodd" clip-rule="evenodd" d="M27.1696 24.083C26.7719 24.4828 26.7719 25.1301 27.1696 25.5267C27.5672 25.9265 28.2162 25.9265 28.6138 25.5267C29.0115 25.1269 29.0115 24.4797 28.6138 24.083C28.2162 23.6833 27.5672 23.6833 27.1696 24.083Z" fill="#43B806"/>
<path fill-rule="evenodd" clip-rule="evenodd" d="M45.0067 7.73373C43.9442 6.67079 42.22 6.67079 41.1543 7.73373C40.0918 8.79667 40.0918 10.5228 41.1543 11.5857C42.2168 12.6486 43.941 12.6486 45.0067 11.5857C46.0692 10.5228 46.0692 8.79667 45.0067 7.73373Z" fill="#43B806"/>
<path fill-rule="evenodd" clip-rule="evenodd" d="M36.3315 13.505C35.533 14.3014 35.533 15.5959 36.3315 16.3955C37.13 17.1919 38.4216 17.1919 39.22 16.3955C40.0185 15.5959 40.0185 14.3045 39.22 13.505C38.4216 12.7054 37.13 12.7054 36.3315 13.505Z" fill="#43B806"/>
<path fill-rule="evenodd" clip-rule="evenodd" d="M31.5438 19.3119C31.0126 19.845 31.0126 20.708 31.5438 21.2379C32.0751 21.7709 32.9372 21.7709 33.4684 21.2379C33.9997 20.7048 33.9997 19.845 33.4684 19.3119C32.9372 18.7788 32.0751 18.7788 31.5438 19.3119Z" fill="#43B806"/>
<path fill-rule="evenodd" clip-rule="evenodd" d="M38.5045 5.81365C39.8342 4.48418 39.8342 2.32974 38.5045 0.997102C37.1748 -0.332367 35.0179 -0.332367 33.6882 0.997102C32.3585 2.32657 32.3585 4.48418 33.6882 5.81365C35.0179 7.14312 37.1716 7.14312 38.5045 5.81365Z" fill="#43B806"/>
<path fill-rule="evenodd" clip-rule="evenodd" d="M13.917 24.083C13.5194 24.4828 13.5194 25.1301 13.917 25.5267C14.3147 25.9265 14.9636 25.9265 15.3613 25.5267C15.7589 25.1269 15.7589 24.4797 15.3613 24.083C14.9636 23.6833 14.3147 23.6833 13.917 24.083Z" fill="#43B806"/>
<path fill-rule="evenodd" clip-rule="evenodd" d="M31.7535 7.73373C30.691 6.67079 28.9668 6.67079 27.9011 7.73373C26.8386 8.79667 26.8386 10.5228 27.9011 11.5857C28.9636 12.6486 30.6878 12.6486 31.7535 11.5857C32.816 10.5228 32.816 8.79667 31.7535 7.73373Z" fill="#43B806"/>
<path fill-rule="evenodd" clip-rule="evenodd" d="M23.0787 13.505C22.2802 14.3014 22.2802 15.5959 23.0787 16.3955C23.8772 17.1919 25.1687 17.1919 25.9672 16.3955C26.7657 15.5959 26.7657 14.3045 25.9672 13.505C25.1687 12.7054 23.8772 12.7054 23.0787 13.505Z" fill="#43B806"/>
<path fill-rule="evenodd" clip-rule="evenodd" d="M18.2913 19.3119C17.76 19.845 17.76 20.708 18.2913 21.2379C18.8225 21.7709 19.6846 21.7709 20.2159 21.2379C20.7471 20.7048 20.7471 19.845 20.2159 19.3119C19.6846 18.7788 18.8225 18.7788 18.2913 19.3119Z" fill="#43B806"/>
<path fill-rule="evenodd" clip-rule="evenodd" d="M24.8855 0.997102C23.5558 -0.332367 21.3989 -0.332367 20.0692 0.997102C18.7395 2.32657 18.7395 4.48418 20.0692 5.81365C21.3989 7.14312 23.5526 7.14312 24.8855 5.81365C26.2152 4.48418 26.2152 2.32974 24.8855 0.997102Z" fill="#43B806"/>
<path fill-rule="evenodd" clip-rule="evenodd" d="M0.298235 24.083C-0.0994116 24.4828 -0.0994116 25.1301 0.298235 25.5267C0.695881 25.9265 1.34484 25.9265 1.74249 25.5267C2.14013 25.1269 2.14013 24.4797 1.74249 24.083C1.34484 23.6833 0.695881 23.6833 0.298235 24.083Z" fill="#43B806"/>
<path fill-rule="evenodd" clip-rule="evenodd" d="M18.1351 7.73373C17.0726 6.67079 15.3484 6.67079 14.2827 7.73373C13.2202 8.79667 13.2202 10.5228 14.2827 11.5857C15.3452 12.6486 17.0694 12.6486 18.1351 11.5857C19.1976 10.5228 19.1976 8.79667 18.1351 7.73373Z" fill="#43B806"/>
<path fill-rule="evenodd" clip-rule="evenodd" d="M9.46006 13.505C8.66159 14.3014 8.66159 15.5959 9.46006 16.3955C10.2585 17.1919 11.5501 17.1919 12.3486 16.3955C13.147 15.5959 13.147 14.3045 12.3486 13.505C11.5501 12.7054 10.2585 12.7054 9.46006 13.505Z" fill="#43B806"/>
<path fill-rule="evenodd" clip-rule="evenodd" d="M4.67249 19.3119C4.14123 19.845 4.14123 20.708 4.67249 21.2379C5.20375 21.7709 6.06584 21.7709 6.5971 21.2379C7.12835 20.7048 7.12835 19.845 6.5971 19.3119C6.06584 18.7788 5.20375 18.7788 4.67249 19.3119Z" fill="#43B806"/>
<path d="M79.0741 0.792541H84.4468C85.5484 0.792541 86.495 0.95745 87.2866 1.28727C88.0847 1.61709 88.6982 2.10522 89.127 2.75166C89.5557 3.39811 89.7701 4.19297 89.7701 5.13625C89.7701 5.90802 89.6382 6.57096 89.3743 7.12505C89.1171 7.67255 88.751 8.131 88.276 8.5004C87.8077 8.8632 87.2569 9.15344 86.6236 9.37112L85.6837 9.86585H81.0134L80.9936 7.55052H84.4666C84.9877 7.55052 85.4198 7.45817 85.7628 7.27347C86.1058 7.08877 86.3631 6.83152 86.5346 6.5017C86.7127 6.17188 86.8017 5.78929 86.8017 5.35393C86.8017 4.89218 86.716 4.4931 86.5445 4.15669C86.373 3.82027 86.1124 3.56302 85.7628 3.38491C85.4132 3.20681 84.9745 3.11776 84.4468 3.11776H82.0425V15.199H79.0741V0.792541ZM87.1283 15.199L83.8433 8.77744L86.9798 8.75766L90.3044 15.0605V15.199H87.1283Z" fill="#FAFCFC"/>
<path d="M96.8051 15.3969C95.974 15.3969 95.2286 15.265 94.569 15.0011C93.9093 14.7307 93.3486 14.358 92.8869 13.883C92.4317 13.4081 92.0821 12.8573 91.8381 12.2306C91.594 11.5974 91.472 10.9246 91.472 10.2122V9.81637C91.472 9.00502 91.5874 8.26293 91.8183 7.5901C92.0492 6.91727 92.379 6.33349 92.8077 5.83876C93.2431 5.34404 93.7708 4.96474 94.3909 4.70089C95.0109 4.43044 95.7101 4.29521 96.4885 4.29521C97.2471 4.29521 97.9199 4.42054 98.507 4.67121C99.0941 4.92187 99.5855 5.27807 99.9813 5.73982C100.384 6.20156 100.687 6.75566 100.892 7.4021C101.096 8.04195 101.198 8.75436 101.198 9.53933V10.7267H92.689V8.82692H98.3982V8.60924C98.3982 8.21346 98.3256 7.86055 98.1805 7.55052C98.042 7.23389 97.8309 6.98323 97.5472 6.79853C97.2636 6.61384 96.9008 6.52149 96.4588 6.52149C96.0828 6.52149 95.7596 6.60394 95.4892 6.76885C95.2187 6.93376 94.9977 7.16463 94.8262 7.46147C94.6613 7.75831 94.536 8.10791 94.4502 8.51029C94.3711 8.90607 94.3315 9.34143 94.3315 9.81637V10.2122C94.3315 10.6409 94.3909 11.0367 94.5096 11.3995C94.6349 11.7623 94.8097 12.0756 95.034 12.3395C95.2649 12.6033 95.5419 12.8078 95.8652 12.9529C96.195 13.0981 96.5677 13.1706 96.9832 13.1706C97.4978 13.1706 97.976 13.0717 98.4179 12.8738C98.8665 12.6693 99.2524 12.3626 99.5756 11.9536L100.961 13.4576C100.737 13.7808 100.43 14.0908 100.041 14.3877C99.6581 14.6845 99.1963 14.9286 98.6554 15.1199C98.1145 15.3046 97.4978 15.3969 96.8051 15.3969Z" fill="#FAFCFC"/>
<path d="M108.609 12.2405C108.609 12.0361 108.55 11.8514 108.431 11.6864C108.313 11.5215 108.092 11.3698 107.768 11.2313C107.452 11.0862 106.993 10.9542 106.393 10.8355C105.852 10.7168 105.347 10.5684 104.879 10.3903C104.417 10.2056 104.015 9.98458 103.672 9.72732C103.336 9.47006 103.072 9.16663 102.88 8.81702C102.689 8.46082 102.593 8.05514 102.593 7.59999C102.593 7.15144 102.689 6.72927 102.88 6.33349C103.078 5.93771 103.359 5.5881 103.721 5.28467C104.091 4.97464 104.539 4.73387 105.067 4.56237C105.601 4.38426 106.202 4.29521 106.868 4.29521C107.798 4.29521 108.596 4.44363 109.262 4.74047C109.935 5.0373 110.45 5.44628 110.806 5.96739C111.169 6.48191 111.35 7.06899 111.35 7.72862H108.5C108.5 7.45157 108.441 7.20421 108.322 6.98653C108.21 6.76225 108.032 6.58745 107.788 6.46212C107.551 6.33019 107.241 6.26423 106.858 6.26423C106.541 6.26423 106.268 6.3203 106.037 6.43244C105.806 6.53798 105.628 6.6831 105.502 6.8678C105.384 7.0459 105.324 7.24379 105.324 7.46147C105.324 7.62638 105.357 7.7748 105.423 7.90672C105.496 8.03205 105.611 8.14749 105.77 8.25303C105.928 8.35858 106.132 8.45752 106.383 8.54987C106.64 8.63562 106.957 8.71478 107.333 8.78734C108.105 8.94565 108.794 9.15344 109.401 9.4107C110.008 9.66136 110.489 10.0044 110.846 10.4397C111.202 10.8685 111.38 11.4325 111.38 12.1317C111.38 12.6066 111.274 13.042 111.063 13.4378C110.852 13.8336 110.549 14.1799 110.153 14.4767C109.757 14.7669 109.282 14.9945 108.728 15.1594C108.181 15.3177 107.564 15.3969 106.878 15.3969C105.882 15.3969 105.037 15.2188 104.345 14.8626C103.659 14.5064 103.138 14.0545 102.781 13.507C102.432 12.9529 102.257 12.3857 102.257 11.8052H104.958C104.971 12.1944 105.07 12.5077 105.255 12.7452C105.446 12.9826 105.687 13.1541 105.977 13.2597C106.274 13.3652 106.594 13.418 106.937 13.418C107.307 13.418 107.613 13.3685 107.857 13.2696C108.101 13.164 108.286 13.0255 108.411 12.854C108.543 12.6759 108.609 12.4714 108.609 12.2405Z" fill="#FAFCFC"/>
<path d="M118.158 15.3969C117.326 15.3969 116.581 15.265 115.921 15.0011C115.262 14.7307 114.701 14.358 114.239 13.883C113.784 13.4081 113.435 12.8573 113.191 12.2306C112.946 11.5974 112.824 10.9246 112.824 10.2122V9.81637C112.824 9.00502 112.94 8.26293 113.171 7.5901C113.402 6.91727 113.731 6.33349 114.16 5.83876C114.596 5.34404 115.123 4.96474 115.743 4.70089C116.363 4.43044 117.063 4.29521 117.841 4.29521C118.6 4.29521 119.272 4.42054 119.859 4.67121C120.447 4.92187 120.938 5.27807 121.334 5.73982C121.736 6.20156 122.04 6.75566 122.244 7.4021C122.449 8.04195 122.551 8.75436 122.551 9.53933V10.7267H114.041V8.82692H119.751V8.60924C119.751 8.21346 119.678 7.86055 119.533 7.55052C119.394 7.23389 119.183 6.98323 118.9 6.79853C118.616 6.61384 118.253 6.52149 117.811 6.52149C117.435 6.52149 117.112 6.60394 116.842 6.76885C116.571 6.93376 116.35 7.16463 116.179 7.46147C116.014 7.75831 115.888 8.10791 115.803 8.51029C115.724 8.90607 115.684 9.34143 115.684 9.81637V10.2122C115.684 10.6409 115.743 11.0367 115.862 11.3995C115.987 11.7623 116.162 12.0756 116.386 12.3395C116.617 12.6033 116.894 12.8078 117.218 12.9529C117.547 13.0981 117.92 13.1706 118.336 13.1706C118.85 13.1706 119.328 13.0717 119.77 12.8738C120.219 12.6693 120.605 12.3626 120.928 11.9536L122.313 13.4576C122.089 13.7808 121.782 14.0908 121.393 14.3877C121.011 14.6845 120.549 14.9286 120.008 15.1199C119.467 15.3046 118.85 15.3969 118.158 15.3969Z" fill="#FAFCFC"/>
<path d="M129.952 12.7847V8.01556C129.952 7.67255 129.896 7.37901 129.784 7.13495C129.672 6.88429 129.497 6.68969 129.259 6.55117C129.028 6.41265 128.728 6.34339 128.359 6.34339C128.042 6.34339 127.768 6.39945 127.538 6.51159C127.307 6.61713 127.129 6.77215 127.003 6.97664C126.878 7.17453 126.815 7.4087 126.815 7.67915H123.966C123.966 7.224 124.071 6.79194 124.282 6.38296C124.493 5.97399 124.8 5.61449 125.203 5.30446C125.605 4.98783 126.083 4.74047 126.637 4.56237C127.198 4.38426 127.825 4.29521 128.517 4.29521C129.348 4.29521 130.087 4.43374 130.734 4.71078C131.38 4.98783 131.888 5.4034 132.257 5.9575C132.633 6.51159 132.821 7.20421 132.821 8.03535V12.6165C132.821 13.2036 132.858 13.6851 132.93 14.0611C133.003 14.4305 133.108 14.7538 133.247 15.0308V15.199H130.367C130.229 14.9088 130.123 14.546 130.051 14.1106C129.985 13.6687 129.952 13.2267 129.952 12.7847ZM130.328 8.6785L130.348 10.2913H128.755C128.379 10.2913 128.052 10.3342 127.775 10.4199C127.498 10.5057 127.27 10.6277 127.092 10.786C126.914 10.9378 126.782 11.1159 126.697 11.3203C126.617 11.5248 126.578 11.7491 126.578 11.9932C126.578 12.2372 126.634 12.4582 126.746 12.6561C126.858 12.8474 127.02 12.9991 127.231 13.1113C127.442 13.2168 127.689 13.2696 127.973 13.2696C128.402 13.2696 128.774 13.1838 129.091 13.0123C129.408 12.8408 129.652 12.6297 129.823 12.3791C130.001 12.1284 130.094 11.8909 130.1 11.6667L130.852 12.8738C130.747 13.1442 130.602 13.4246 130.417 13.7148C130.239 14.0051 130.011 14.2788 129.734 14.5361C129.457 14.7867 129.124 14.9945 128.735 15.1594C128.346 15.3177 127.884 15.3969 127.35 15.3969C126.67 15.3969 126.053 15.2617 125.499 14.9912C124.952 14.7142 124.516 14.3349 124.193 13.8534C123.877 13.3652 123.718 12.8111 123.718 12.1911C123.718 11.6304 123.824 11.1323 124.035 10.697C124.246 10.2616 124.556 9.89553 124.965 9.59869C125.381 9.29526 125.898 9.06769 126.518 8.91597C127.139 8.75766 127.858 8.6785 128.675 8.6785H130.328Z" fill="#FAFCFC"/>
<path d="M137.868 6.82822V15.199H135.018V4.4931H137.699L137.868 6.82822ZM141.093 4.42384L141.044 7.06569C140.905 7.0459 140.737 7.02941 140.539 7.01621C140.348 6.99643 140.173 6.98653 140.015 6.98653C139.612 6.98653 139.263 7.0393 138.966 7.14484C138.676 7.24379 138.432 7.39221 138.234 7.5901C138.042 7.78799 137.897 8.02876 137.798 8.3124C137.706 8.59604 137.653 8.91927 137.64 9.28207L137.066 9.10396C137.066 8.41135 137.135 7.7748 137.274 7.19432C137.412 6.60724 137.614 6.09602 137.877 5.66066C138.148 5.2253 138.478 4.88889 138.867 4.65142C139.256 4.41395 139.701 4.29521 140.203 4.29521C140.361 4.29521 140.523 4.30841 140.687 4.33479C140.852 4.35458 140.988 4.38426 141.093 4.42384Z" fill="#FAFCFC"/>
<path d="M146.664 13.1706C147.013 13.1706 147.323 13.1047 147.594 12.9727C147.864 12.8342 148.075 12.6429 148.227 12.3989C148.385 12.1482 148.468 11.8547 148.474 11.5182H151.156C151.149 12.2702 150.948 12.9398 150.552 13.5268C150.157 14.1073 149.626 14.5658 148.959 14.9022C148.293 15.232 147.548 15.3969 146.723 15.3969C145.892 15.3969 145.166 15.2584 144.546 14.9813C143.933 14.7043 143.422 14.3217 143.013 13.8336C142.604 13.3388 142.297 12.7649 142.093 12.1119C141.888 11.4523 141.786 10.7465 141.786 9.99448V9.70753C141.786 8.94895 141.888 8.24314 142.093 7.5901C142.297 6.93046 142.604 6.35658 143.013 5.86845C143.422 5.37372 143.933 4.98783 144.546 4.71078C145.16 4.43374 145.879 4.29521 146.703 4.29521C147.581 4.29521 148.349 4.46342 149.009 4.79983C149.675 5.13625 150.196 5.61778 150.572 6.24444C150.955 6.8645 151.149 7.59999 151.156 8.45092H148.474C148.468 8.09472 148.392 7.7715 148.247 7.48126C148.108 7.19102 147.904 6.96015 147.633 6.78864C147.37 6.61054 147.043 6.52149 146.654 6.52149C146.238 6.52149 145.899 6.61054 145.635 6.78864C145.371 6.96015 145.166 7.19761 145.021 7.50105C144.876 7.79788 144.774 8.1376 144.715 8.52019C144.662 8.89618 144.635 9.29196 144.635 9.70753V9.99448C144.635 10.41 144.662 10.8091 144.715 11.1917C144.767 11.5743 144.866 11.914 145.011 12.2109C145.163 12.5077 145.371 12.7419 145.635 12.9134C145.899 13.0849 146.242 13.1706 146.664 13.1706Z" fill="#FAFCFC"/>
<path d="M155.589 0.000976562V15.199H152.739V0.000976562H155.589ZM155.183 9.47006H154.401C154.408 8.72467 154.507 8.03865 154.698 7.412C154.889 6.77875 155.163 6.23125 155.519 5.7695C155.876 5.30116 156.301 4.93836 156.796 4.6811C157.297 4.42384 157.851 4.29521 158.458 4.29521C158.986 4.29521 159.464 4.37107 159.893 4.52279C160.328 4.66791 160.701 4.90538 161.011 5.2352C161.328 5.55842 161.572 5.98388 161.743 6.51159C161.915 7.0393 162 7.67915 162 8.43114V15.199H159.131V8.41135C159.131 7.93641 159.062 7.56371 158.923 7.29326C158.791 7.01621 158.597 6.82162 158.339 6.70948C158.089 6.59075 157.779 6.53138 157.409 6.53138C157 6.53138 156.651 6.60724 156.36 6.75896C156.077 6.91067 155.849 7.12176 155.678 7.39221C155.506 7.65606 155.381 7.96609 155.302 8.3223C155.223 8.6785 155.183 9.06109 155.183 9.47006Z" fill="#FAFCFC"/>
<path d="M83.497 35.1487H80.3604L80.3802 32.8333H83.497C84.2753 32.8333 84.9317 32.6585 85.466 32.3089C86.0003 31.9527 86.4027 31.4349 86.6731 30.7555C86.9502 30.076 87.0887 29.2548 87.0887 28.2917V27.5892C87.0887 26.8504 87.0095 26.2007 86.8512 25.64C86.6995 25.0793 86.4719 24.6077 86.1685 24.2251C85.8651 23.8425 85.4924 23.5555 85.0504 23.3642C84.6084 23.1664 84.1005 23.0674 83.5266 23.0674H80.301V20.7422H83.5266C84.4897 20.7422 85.3703 20.9071 86.1685 21.2369C86.9732 21.5601 87.6692 22.0252 88.2562 22.632C88.8433 23.2389 89.2952 23.9645 89.6118 24.8088C89.935 25.6466 90.0966 26.58 90.0966 27.609V28.2917C90.0966 29.3142 89.935 30.2476 89.6118 31.0919C89.2952 31.9362 88.8433 32.6618 88.2562 33.2687C87.6758 33.869 86.9798 34.334 86.1685 34.6638C85.3637 34.987 84.4732 35.1487 83.497 35.1487ZM82.0425 20.7422V35.1487H79.0741V20.7422H82.0425Z" fill="#FAFCFC"/>
<path d="M97.854 32.7344V27.9652C97.854 27.6222 97.7979 27.3287 97.6858 27.0846C97.5736 26.8339 97.3988 26.6393 97.1613 26.5008C96.9305 26.3623 96.6303 26.293 96.2609 26.293C95.9443 26.293 95.6706 26.3491 95.4397 26.4612C95.2088 26.5668 95.0307 26.7218 94.9054 26.9263C94.7801 27.1242 94.7174 27.3583 94.7174 27.6288H91.8678C91.8678 27.1736 91.9733 26.7416 92.1844 26.3326C92.3955 25.9236 92.7022 25.5641 93.1046 25.2541C93.507 24.9375 93.9852 24.6901 94.5393 24.512C95.1 24.3339 95.7266 24.2449 96.4192 24.2449C97.2504 24.2449 97.9892 24.3834 98.6356 24.6604C99.2821 24.9375 99.79 25.353 100.159 25.9071C100.535 26.4612 100.723 27.1539 100.723 27.985V32.5662C100.723 33.1533 100.76 33.6348 100.832 34.0108C100.905 34.3802 101.01 34.7034 101.149 34.9804V35.1487H98.2695C98.131 34.8584 98.0255 34.4956 97.9529 34.0603C97.8869 33.6183 97.854 33.1763 97.854 32.7344ZM98.23 28.6281L98.2497 30.241H96.6567C96.2807 30.241 95.9542 30.2838 95.6772 30.3696C95.4001 30.4553 95.1725 30.5774 94.9944 30.7357C94.8163 30.8874 94.6844 31.0655 94.5986 31.27C94.5195 31.4745 94.4799 31.6988 94.4799 31.9428C94.4799 32.1869 94.536 32.4079 94.6481 32.6058C94.7603 32.7971 94.9219 32.9488 95.133 33.0609C95.344 33.1664 95.5914 33.2192 95.875 33.2192C96.3038 33.2192 96.6765 33.1335 96.9931 32.962C97.3098 32.7905 97.5538 32.5794 97.7253 32.3287C97.9034 32.078 97.9958 31.8406 98.0024 31.6163L98.7544 32.8234C98.6488 33.0939 98.5037 33.3742 98.319 33.6645C98.1409 33.9547 97.9133 34.2285 97.6363 34.4857C97.3592 34.7364 97.0261 34.9442 96.6369 35.1091C96.2477 35.2674 95.786 35.3465 95.2517 35.3465C94.5723 35.3465 93.9555 35.2113 93.4014 34.9409C92.8539 34.6638 92.4186 34.2845 92.0953 33.803C91.7787 33.3149 91.6204 32.7608 91.6204 32.1407C91.6204 31.58 91.7259 31.082 91.937 30.6466C92.1481 30.2113 92.4581 29.8452 92.8671 29.5483C93.2827 29.2449 93.8005 29.0173 94.4205 28.8656C95.0406 28.7073 95.7596 28.6281 96.5776 28.6281H98.23Z" fill="#FAFCFC"/>
<path d="M108.164 24.4428V26.4612H101.931V24.4428H108.164ZM103.474 21.8009H106.324V31.923C106.324 32.2331 106.363 32.4705 106.442 32.6354C106.528 32.8003 106.654 32.9158 106.818 32.9817C106.983 33.0411 107.191 33.0708 107.442 33.0708C107.62 33.0708 107.778 33.0642 107.917 33.051C108.062 33.0312 108.184 33.0114 108.283 32.9916L108.293 35.0893C108.049 35.1684 107.785 35.2311 107.501 35.2773C107.218 35.3235 106.904 35.3465 106.561 35.3465C105.935 35.3465 105.387 35.2443 104.919 35.0398C104.457 34.8287 104.101 34.4923 103.85 34.0306C103.599 33.5688 103.474 32.962 103.474 32.21V21.8009Z" fill="#FAFCFC"/>
<path d="M115.565 32.7344V27.9652C115.565 27.6222 115.509 27.3287 115.397 27.0846C115.285 26.8339 115.11 26.6393 114.873 26.5008C114.642 26.3623 114.342 26.293 113.972 26.293C113.656 26.293 113.382 26.3491 113.151 26.4612C112.92 26.5668 112.742 26.7218 112.617 26.9263C112.491 27.1242 112.429 27.3583 112.429 27.6288H109.579C109.579 27.1736 109.685 26.7416 109.896 26.3326C110.107 25.9236 110.413 25.5641 110.816 25.2541C111.218 24.9375 111.696 24.6901 112.251 24.512C112.811 24.3339 113.438 24.2449 114.13 24.2449C114.962 24.2449 115.7 24.3834 116.347 24.6604C116.993 24.9375 117.501 25.353 117.871 25.9071C118.247 26.4612 118.435 27.1539 118.435 27.985V32.5662C118.435 33.1533 118.471 33.6348 118.543 34.0108C118.616 34.3802 118.722 34.7034 118.86 34.9804V35.1487H115.981C115.842 34.8584 115.737 34.4956 115.664 34.0603C115.598 33.6183 115.565 33.1763 115.565 32.7344ZM115.941 28.6281L115.961 30.241H114.368C113.992 30.241 113.665 30.2838 113.388 30.3696C113.111 30.4553 112.884 30.5774 112.706 30.7357C112.528 30.8874 112.396 31.0655 112.31 31.27C112.231 31.4745 112.191 31.6988 112.191 31.9428C112.191 32.1869 112.247 32.4079 112.359 32.6058C112.472 32.7971 112.633 32.9488 112.844 33.0609C113.055 33.1664 113.303 33.2192 113.586 33.2192C114.015 33.2192 114.388 33.1335 114.704 32.962C115.021 32.7905 115.265 32.5794 115.437 32.3287C115.615 32.078 115.707 31.8406 115.714 31.6163L116.466 32.8234C116.36 33.0939 116.215 33.3742 116.03 33.6645C115.852 33.9547 115.625 34.2285 115.348 34.4857C115.07 34.7364 114.737 34.9442 114.348 35.1091C113.959 35.2674 113.497 35.3465 112.963 35.3465C112.284 35.3465 111.667 35.2113 111.113 34.9409C110.565 34.6638 110.13 34.2845 109.807 33.803C109.49 33.3149 109.332 32.7608 109.332 32.1407C109.332 31.58 109.437 31.082 109.648 30.6466C109.859 30.2113 110.169 29.8452 110.578 29.5483C110.994 29.2449 111.512 29.0173 112.132 28.8656C112.752 28.7073 113.471 28.6281 114.289 28.6281H115.941Z" fill="#FAFCFC"/>
<path d="M86.574 51.5288C86.574 51.2715 86.5344 51.0407 86.4552 50.8362C86.3827 50.6251 86.2442 50.4338 86.0397 50.2623C85.8352 50.0842 85.5482 49.9094 85.1788 49.7379C84.8094 49.5664 84.3312 49.3883 83.7441 49.2036C83.0911 48.9925 82.471 48.755 81.884 48.4912C81.3035 48.2273 80.789 47.9206 80.3404 47.571C79.8985 47.2148 79.5488 46.8025 79.2916 46.3342C79.0409 45.8658 78.9156 45.3216 78.9156 44.7016C78.9156 44.1013 79.0475 43.5571 79.3114 43.069C79.5752 42.5742 79.9446 42.1521 80.4196 41.8024C80.8945 41.4462 81.4552 41.1725 82.1016 40.9812C82.7547 40.7899 83.4704 40.6943 84.2488 40.6943C85.3108 40.6943 86.2376 40.8856 87.0291 41.2681C87.8207 41.6507 88.4342 42.1751 88.8695 42.8414C89.3115 43.5076 89.5324 44.2695 89.5324 45.127H86.5839C86.5839 44.7049 86.4948 44.3355 86.3167 44.0188C86.1452 43.6956 85.8814 43.4416 85.5252 43.2569C85.1755 43.0722 84.7336 42.9799 84.1993 42.9799C83.6848 42.9799 83.256 43.0591 82.913 43.2174C82.57 43.3691 82.3127 43.5769 82.1412 43.8407C81.9697 44.098 81.884 44.3882 81.884 44.7114C81.884 44.9555 81.9433 45.1765 82.0621 45.3744C82.1874 45.5723 82.3721 45.757 82.6162 45.9285C82.8602 46.1 83.1604 46.2616 83.5166 46.4133C83.8728 46.565 84.285 46.7134 84.7534 46.8586C85.5383 47.096 86.2277 47.3632 86.8213 47.66C87.4216 47.9569 87.9229 48.29 88.3253 48.6594C88.7277 49.0288 89.0311 49.4476 89.2356 49.916C89.4401 50.3843 89.5423 50.9153 89.5423 51.509C89.5423 52.1357 89.4203 52.6964 89.1762 53.1911C88.9322 53.6858 88.5793 54.1047 88.1175 54.4477C87.6558 54.7907 87.105 55.0513 86.4651 55.2294C85.8253 55.4075 85.1096 55.4965 84.318 55.4965C83.6056 55.4965 82.9031 55.4042 82.2105 55.2195C81.5179 55.0282 80.8879 54.7412 80.3206 54.3586C79.7599 53.976 79.3114 53.4879 78.975 52.8942C78.6385 52.3006 78.4703 51.5981 78.4703 50.7867H81.4486C81.4486 51.2353 81.5179 51.6145 81.6564 51.9246C81.7949 52.2346 81.9895 52.4853 82.2402 52.6766C82.4974 52.8679 82.8009 53.0064 83.1505 53.0921C83.5067 53.1779 83.8959 53.2208 84.318 53.2208C84.8325 53.2208 85.2547 53.1482 85.5845 53.0031C85.9209 52.858 86.1683 52.6568 86.3266 52.3995C86.4915 52.1423 86.574 51.852 86.574 51.5288Z" fill="#FAFCFC"/>
<path d="M95.8056 53.2702C96.1552 53.2702 96.4652 53.2043 96.7357 53.0723C97.0061 52.9338 97.2172 52.7425 97.3689 52.4985C97.5272 52.2478 97.6097 51.9543 97.6163 51.6178H100.298C100.291 52.3698 100.09 53.0394 99.6942 53.6264C99.2984 54.2069 98.7674 54.6654 98.1011 55.0018C97.4349 55.3316 96.6895 55.4965 95.865 55.4965C95.0338 55.4965 94.3082 55.358 93.6882 55.0809C93.0747 54.8039 92.5635 54.4213 92.1545 53.9332C91.7455 53.4384 91.4388 52.8646 91.2343 52.2115C91.0298 51.5519 90.9276 50.8461 90.9276 50.0941V49.8071C90.9276 49.0486 91.0298 48.3427 91.2343 47.6897C91.4388 47.0301 91.7455 46.4562 92.1545 45.9681C92.5635 45.4733 93.0747 45.0874 93.6882 44.8104C94.3016 44.5333 95.0206 44.3948 95.8452 44.3948C96.7225 44.3948 97.491 44.563 98.1506 44.8994C98.8168 45.2359 99.3379 45.7174 99.7139 46.344C100.097 46.9641 100.291 47.6996 100.298 48.5505H97.6163C97.6097 48.1943 97.5338 47.8711 97.3887 47.5809C97.2502 47.2906 97.0457 47.0598 96.7753 46.8882C96.5114 46.7101 96.1849 46.6211 95.7957 46.6211C95.3801 46.6211 95.0404 46.7101 94.7766 46.8882C94.5127 47.0598 94.3082 47.2972 94.1631 47.6007C94.018 47.8975 93.9157 48.2372 93.8564 48.6198C93.8036 48.9958 93.7772 49.3916 93.7772 49.8071V50.0941C93.7772 50.5097 93.8036 50.9087 93.8564 51.2913C93.9091 51.6739 94.0081 52.0136 94.1532 52.3105C94.3049 52.6073 94.5127 52.8415 94.7766 53.013C95.0404 53.1845 95.3834 53.2702 95.8056 53.2702Z" fill="#FAFCFC"/>
<path d="M101.495 50.0545V49.8467C101.495 49.0618 101.607 48.3394 101.831 47.6798C102.056 47.0136 102.382 46.4364 102.811 45.9483C103.24 45.4601 103.767 45.0808 104.394 44.8104C105.021 44.5333 105.74 44.3948 106.551 44.3948C107.362 44.3948 108.085 44.5333 108.718 44.8104C109.351 45.0808 109.882 45.4601 110.311 45.9483C110.746 46.4364 111.076 47.0136 111.3 47.6798C111.525 48.3394 111.637 49.0618 111.637 49.8467V50.0545C111.637 50.8329 111.525 51.5552 111.3 52.2214C111.076 52.8811 110.746 53.4582 110.311 53.953C109.882 54.4411 109.355 54.8204 108.728 55.0908C108.101 55.3613 107.382 55.4965 106.571 55.4965C105.76 55.4965 105.037 55.3613 104.404 55.0908C103.777 54.8204 103.246 54.4411 102.811 53.953C102.382 53.4582 102.056 52.8811 101.831 52.2214C101.607 51.5552 101.495 50.8329 101.495 50.0545ZM104.345 49.8467V50.0545C104.345 50.5031 104.384 50.9219 104.463 51.3111C104.542 51.7003 104.668 52.0433 104.839 52.3401C105.017 52.6304 105.248 52.858 105.532 53.0229C105.816 53.1878 106.162 53.2702 106.571 53.2702C106.967 53.2702 107.306 53.1878 107.59 53.0229C107.874 52.858 108.101 52.6304 108.273 52.3401C108.444 52.0433 108.57 51.7003 108.649 51.3111C108.734 50.9219 108.777 50.5031 108.777 50.0545V49.8467C108.777 49.4114 108.734 49.0024 108.649 48.6198C108.57 48.2306 108.441 47.8876 108.263 47.5908C108.091 47.2873 107.864 47.0499 107.58 46.8784C107.296 46.7068 106.953 46.6211 106.551 46.6211C106.149 46.6211 105.806 46.7068 105.522 46.8784C105.245 47.0499 105.017 47.2873 104.839 47.5908C104.668 47.8876 104.542 48.2306 104.463 48.6198C104.384 49.0024 104.345 49.4114 104.345 49.8467Z" fill="#FAFCFC"/>
<path d="M118.632 44.5927V46.6112H112.399V44.5927H118.632ZM113.942 41.9509H116.792V52.073C116.792 52.383 116.832 52.6205 116.911 52.7854C116.996 52.9503 117.122 53.0657 117.287 53.1317C117.452 53.1911 117.659 53.2208 117.91 53.2208C118.088 53.2208 118.246 53.2142 118.385 53.201C118.53 53.1812 118.652 53.1614 118.751 53.1416L118.761 55.2393C118.517 55.3184 118.253 55.3811 117.969 55.4272C117.686 55.4734 117.372 55.4965 117.029 55.4965C116.403 55.4965 115.855 55.3943 115.387 55.1898C114.925 54.9787 114.569 54.6423 114.318 54.1805C114.068 53.7188 113.942 53.1119 113.942 52.3599V41.9509Z" fill="#FAFCFC"/>
<path d="M123.263 40.1006V55.2986H120.403V40.1006H123.263Z" fill="#FAFCFC"/>
<path d="M131.396 52.8843V48.1152C131.396 47.7722 131.34 47.4786 131.228 47.2346C131.116 46.9839 130.941 46.7893 130.704 46.6508C130.473 46.5123 130.173 46.443 129.803 46.443C129.487 46.443 129.213 46.4991 128.982 46.6112C128.751 46.7167 128.573 46.8718 128.448 47.0762C128.322 47.2741 128.26 47.5083 128.26 47.7788H125.41C125.41 47.3236 125.516 46.8915 125.727 46.4826C125.938 46.0736 126.245 45.7141 126.647 45.4041C127.049 45.0874 127.528 44.8401 128.082 44.662C128.642 44.4839 129.269 44.3948 129.962 44.3948C130.793 44.3948 131.532 44.5333 132.178 44.8104C132.824 45.0874 133.332 45.503 133.702 46.0571C134.078 46.6112 134.266 47.3038 134.266 48.135V52.7161C134.266 53.3032 134.302 53.7848 134.375 54.1607C134.447 54.5301 134.553 54.8534 134.691 55.1304V55.2986H131.812C131.673 55.0084 131.568 54.6456 131.495 54.2102C131.429 53.7683 131.396 53.3263 131.396 52.8843ZM131.772 48.7781L131.792 50.3909H130.199C129.823 50.3909 129.497 50.4338 129.219 50.5196C128.942 50.6053 128.715 50.7273 128.537 50.8856C128.359 51.0374 128.227 51.2155 128.141 51.42C128.062 51.6244 128.022 51.8487 128.022 52.0928C128.022 52.3369 128.078 52.5578 128.19 52.7557C128.303 52.947 128.464 53.0987 128.675 53.2109C128.886 53.3164 129.134 53.3692 129.417 53.3692C129.846 53.3692 130.219 53.2834 130.535 53.1119C130.852 52.9404 131.096 52.7293 131.268 52.4787C131.446 52.228 131.538 51.9905 131.545 51.7663L132.297 52.9734C132.191 53.2439 132.046 53.5242 131.861 53.8144C131.683 54.1047 131.456 54.3784 131.179 54.6357C130.902 54.8863 130.568 55.0941 130.179 55.259C129.79 55.4174 129.328 55.4965 128.794 55.4965C128.115 55.4965 127.498 55.3613 126.944 55.0908C126.396 54.8138 125.961 54.4345 125.638 53.953C125.321 53.4648 125.163 52.9107 125.163 52.2907C125.163 51.73 125.268 51.232 125.479 50.7966C125.69 50.3612 126 49.9951 126.409 49.6983C126.825 49.3949 127.343 49.1673 127.963 49.0156C128.583 48.8573 129.302 48.7781 130.12 48.7781H131.772Z" fill="#FAFCFC"/>
<path d="M139.253 46.8784V55.2986H136.403V44.5927H139.074L139.253 46.8784ZM138.837 49.5697H138.065C138.065 48.7781 138.167 48.0657 138.372 47.4324C138.576 46.7926 138.863 46.2484 139.233 45.7998C139.602 45.3447 140.041 44.9984 140.549 44.7609C141.063 44.5169 141.637 44.3948 142.27 44.3948C142.772 44.3948 143.23 44.4674 143.646 44.6125C144.061 44.7576 144.418 44.9885 144.714 45.3051C145.018 45.6217 145.249 46.0406 145.407 46.5617C145.572 47.0828 145.654 47.7194 145.654 48.4714V55.2986H142.785V48.4615C142.785 47.9865 142.719 47.6171 142.587 47.3533C142.455 47.0894 142.261 46.9047 142.003 46.7992C141.753 46.6871 141.443 46.631 141.073 46.631C140.691 46.631 140.357 46.7068 140.074 46.8586C139.797 47.0103 139.566 47.2214 139.381 47.4918C139.203 47.7557 139.068 48.0657 138.976 48.4219C138.883 48.7781 138.837 49.1607 138.837 49.5697Z" fill="#FAFCFC"/>
<path d="M154.144 52.9635V40.1006H157.013V55.2986H154.431L154.144 52.9635ZM147.376 50.0743V49.8665C147.376 49.0486 147.468 48.3065 147.653 47.6402C147.838 46.9674 148.108 46.3902 148.464 45.9087C148.821 45.4272 149.259 45.0545 149.78 44.7906C150.301 44.5267 150.895 44.3948 151.561 44.3948C152.188 44.3948 152.736 44.5267 153.204 44.7906C153.679 45.0545 154.081 45.4305 154.411 45.9186C154.747 46.4001 155.018 46.9707 155.222 47.6303C155.427 48.2834 155.575 48.9991 155.668 49.7775V50.2326C155.575 50.978 155.427 51.6706 155.222 52.3105C155.018 52.9503 154.747 53.511 154.411 53.9925C154.081 54.4675 153.679 54.8369 153.204 55.1007C152.729 55.3646 152.175 55.4965 151.542 55.4965C150.875 55.4965 150.282 55.3613 149.761 55.0908C149.246 54.8204 148.811 54.4411 148.455 53.953C148.105 53.4648 147.838 52.8909 147.653 52.2313C147.468 51.5717 147.376 50.8527 147.376 50.0743ZM150.226 49.8665V50.0743C150.226 50.5163 150.259 50.9285 150.325 51.3111C150.397 51.6937 150.513 52.0334 150.671 52.3303C150.836 52.6205 151.047 52.8481 151.304 53.013C151.568 53.1713 151.888 53.2504 152.264 53.2504C152.752 53.2504 153.154 53.1416 153.471 52.9239C153.788 52.6996 154.028 52.3929 154.193 52.0037C154.365 51.6145 154.464 51.166 154.49 50.6581V49.3619C154.47 48.9463 154.411 48.5736 154.312 48.2438C154.22 47.9074 154.081 47.6204 153.897 47.383C153.718 47.1455 153.494 46.9608 153.224 46.8289C152.96 46.697 152.646 46.631 152.284 46.631C151.914 46.631 151.598 46.7167 151.334 46.8882C151.07 47.0532 150.856 47.2807 150.691 47.571C150.532 47.8612 150.414 48.2042 150.334 48.6C150.262 48.9892 150.226 49.4114 150.226 49.8665Z" fill="#FAFCFC"/>
</svg>
